<?xml version="1.0" encoding="iso-8859-1"?>
<!-- Generator: Adobe Illustrator 19.0.0, SVG Export Plug-In . SVG Version: 6.00 Build 0)  -->
<svg version="1.1" id="Layer_1" xmlns="http://www.w3.org/2000/svg" xmlns:xlink="http://www.w3.org/1999/xlink" x="0px" y="0px"
	 viewBox="0 0 512 512" style="enable-background:new 0 0 512 512;" xml:space="preserve">
<g>
	<g>
		<path d="M423.055,141.264c-0.002-0.005,0-0.01-0.003-0.015l-0.052-0.1c-0.007-0.013-0.013-0.026-0.02-0.039L367.97,36.192
			c-1.761-3.359-5.24-5.463-9.032-5.463H154.869c-3.743,0-7.186,2.051-8.968,5.342L89.036,141.086
			c-0.798,1.453-1.253,3.122-1.253,4.898v245.605c0,5.633,4.566,10.199,10.199,10.199h316.036v0c5.632,0,10.199-4.566,10.199-10.199
			V145.984C424.218,144.28,423.793,142.675,423.055,141.264z M160.944,51.127h191.825l44.386,84.657H115.103L160.944,51.127z
			 M289.143,381.39h-66.286V275.374h66.286V381.39z M309.541,381.39V265.175c0-5.633-4.567-10.199-10.199-10.199h-86.684
			c-5.633,0-10.199,4.566-10.199,10.199V381.39h-94.277V156.183h295.637V381.39H309.541z"/>
	</g>
</g>
<g>
	<g>
		<path d="M507.947,420.405l-52.273-39.463c-4.495-3.393-10.892-2.502-14.286,1.995c-3.393,4.496-2.5,10.892,1.995,14.285
			l29.809,22.505H38.808l29.809-22.505c4.496-3.394,5.388-9.79,1.995-14.285c-3.393-4.495-9.79-5.389-14.285-1.995L4.054,420.405
			c-3.092,2.335-4.481,6.09-3.94,9.671c-0.541,3.58,0.848,7.335,3.94,9.671l52.272,39.464c1.84,1.389,3.997,2.06,6.138,2.06
			c3.089,0,6.142-1.398,8.147-4.054c3.394-4.496,2.501-10.892-1.995-14.285l-30.207-22.805H473.59l-30.208,22.805
			c-4.495,3.394-5.388,9.79-1.995,14.285c2.006,2.656,5.058,4.054,8.148,4.054c2.14,0,4.298-0.671,6.138-2.06l52.273-39.464
			c3.092-2.335,4.479-6.09,3.94-9.671C512.426,426.494,511.039,422.739,507.947,420.405z"/>
	</g>
</g>
<g>
	<g>
		<path d="M380.028,216.77c-5.632,0-10.199,4.566-10.199,10.199v4.51c0,5.633,4.566,10.199,10.199,10.199
			c5.632,0,10.199-4.566,10.199-10.199v-4.51C390.228,221.337,385.66,216.77,380.028,216.77z"/>
	</g>
</g>
<g>
	<g>
		<path d="M380.028,259.617c-5.632,0-10.199,4.566-10.199,10.199v89.075c0,5.632,4.566,10.199,10.199,10.199
			c5.632,0,10.199-4.566,10.199-10.199v-89.075C390.228,264.183,385.66,259.617,380.028,259.617z"/>
	</g>
</g>
<g>
</g>
<g>
</g>
<g>
</g>
<g>
</g>
<g>
</g>
<g>
</g>
<g>
</g>
<g>
</g>
<g>
</g>
<g>
</g>
<g>
</g>
<g>
</g>
<g>
</g>
<g>
</g>
<g>
</g>
</svg>
